<svg xmlns="http://www.w3.org/2000/svg" xmlns:xlink="http://www.w3.org/1999/xlink" viewBox="0 0 160 160"><defs><path id="a" d="M24 56h16v56H24z"/><path id="b" d="M0 0h64v48H0z"/><path id="c" d="M16 0h40c10.667 10.667 16 24 16 40s-5.333 32-16 48H16C5.333 72 0 56 0 40S5.333 10.667 16 0z"/><path id="g" d="M36 8v8H12V8a4 4 0 110-8h24a4 4 0 110 8z"/><path id="h" d="M8 12h32a8 8 0 018 8v24H0V20a8 8 0 018-8z"/><path id="i" d="M0 36h48v8H0z"/><path id="j" d="M47 20h3a2 2 0 012 2v4a2 2 0 01-2 2h-3v-8z"/><path id="k" d="M105 120h6a1 1 0 110 2h-6a1 1 0 110-2zm24 0h6a1 1 0 110 2h-6a1 1 0 110-2zm-24 4h6a1 1 0 110 2h-6a1 1 0 110-2zm24 0h6a1 1 0 110 2h-6a1 1 0 110-2z"/><path id="l" d="M4 24h8v20a4 4 0 11-8 0V24z"/><path id="m" d="M.586 7.414l6-6a2 2 0 012.828 0l6 6A2 2 0 0116 8.828V18a2 2 0 01-2 2H2a2 2 0 01-2-2V8.828a2 2 0 01.586-1.414z"/><path id="n" d="M0 0h48v8H0z"/><path id="o" d="M4 7h40l-4 33H8z"/><path id="p" d="M16 24a8 8 0 018 8v33H8V32a8 8 0 018-8z"/><path id="q" d="M16 24a8 8 0 018 8v33H8V32a8 8 0 018-8z"/><path id="r" d="M32 40a8 8 0 018 8v17H24V48a8 8 0 018-8z"/><path id="s" d="M24 0a8 8 0 018 8v57H16V8a8 8 0 018-8z"/><rect id="e" width="56" height="4" x="8" rx="2"/><rect id="f" width="48" height="4" x="12" y="84" rx="2"/></defs><g fill="none" fill-rule="evenodd"><ellipse cx="80" cy="130" fill="#B3BEF1" opacity=".5" rx="70" ry="15"/><g transform="translate(80 24)"><use fill="#FB8B8A" xlink:href="#a"/><path stroke="#010A37" d="M24.5 56.5h15v55h-15z"/></g><g transform="translate(80 24)"><use fill="#FFF" xlink:href="#b"/><path stroke="#010A37" d="M.5.5h63v47H.5z"/></g><path stroke="#010A37" stroke-width="2" d="M112 72v8"/><g transform="translate(16 48)"><mask id="d" fill="#fff"><use xlink:href="#c"/></mask><use fill="#D8D8D8" xlink:href="#c"/><path fill="#F3F4FA" d="M0 4h72v16H0z" mask="url(#d)"/><path fill="#B3BEF1" d="M0 20h72v16H0z" mask="url(#d)"/><path fill="#F3F4FA" d="M0 36h72v16H0z" mask="url(#d)"/><path fill="#B3BEF1" d="M0 52h72v16H0z" mask="url(#d)"/><path fill="#F3F4FA" d="M0 68h72v16H0z" mask="url(#d)"/><path stroke="#010A37" d="M16.208.5C5.734 11.047.5 24.204.5 40c0 15.822 5.252 31.653 15.768 47.5h39.464C66.248 71.653 71.5 55.822 71.5 40c0-15.796-5.234-28.953-15.708-39.5H16.208z"/></g><g transform="translate(16 48)"><use fill="#5E6EBF" xlink:href="#e"/><rect width="55" height="3" x="8.5" y=".5" stroke="#010A37" rx="1.5"/></g><g transform="translate(16 48)"><use fill="#5E6EBF" xlink:href="#f"/><rect width="47" height="3" x="12.5" y="84.5" stroke="#010A37" rx="1.5"/></g><g transform="translate(96 92)"><use fill="#FFE6B3" xlink:href="#g"/><path stroke="#CD9157" stroke-width="2" d="M13 15h22V7h1a3 3 0 000-6H12a3 3 0 000 6h1v8z"/><path stroke="#010A37" d="M12.5 15.5h23v-8h.5a3.5 3.5 0 000-7H12a3.5 3.5 0 000 7h.5v8z"/></g><g transform="translate(96 92)"><use fill="#5E6EBF" xlink:href="#h"/><path stroke="#010A37" d="M.5 43.5h47V20a7.5 7.5 0 00-7.5-7.5H8A7.5 7.5 0 00.5 20v23.5z"/></g><g transform="translate(96 92)"><use fill="#B3BEF1" xlink:href="#i"/><path stroke="#010A37" d="M.5 36.5h47v7H.5z"/></g><g transform="translate(96 92)"><use fill="#B3BEF1" xlink:href="#j"/><path stroke="#010A37" d="M47.5 20.5v7H50a1.5 1.5 0 001.5-1.5v-4a1.5 1.5 0 00-1.5-1.5h-2.5z"/></g><use fill="#D8D8D8" xlink:href="#k"/><path stroke="#010A37" d="M105 120.5a.5.5 0 000 1h6a.5.5 0 000-1h-6zm24 0a.5.5 0 000 1h6a.5.5 0 000-1h-6zm-24 4a.5.5 0 000 1h6a.5.5 0 000-1h-6zm24 0a.5.5 0 000 1h6a.5.5 0 000-1h-6z"/><g transform="translate(80 88)"><use fill="#FB8B8A" xlink:href="#l"/><path stroke="#010A37" d="M4.5 24.5V44a3.5 3.5 0 007 0V24.5h-7z"/><use fill="#E1F5F4" xlink:href="#m"/><path stroke="#010A37" d="M.94 7.768a1.5 1.5 0 00-.44 1.06V18A1.5 1.5 0 002 19.5h12a1.5 1.5 0 001.5-1.5V8.828a1.5 1.5 0 00-.44-1.06l-6-6a1.5 1.5 0 00-2.12 0l-6 6z"/><path stroke="#010A37" stroke-linecap="round" d="M8 24v-8"/><circle cx="8" cy="44" r="1" fill="#010A37"/></g><g transform="translate(8 96)"><use fill="#FFE6B3" xlink:href="#n"/><path stroke="#010A37" d="M.5.5h47v7H.5z"/></g><g transform="translate(8 96)"><use fill="#FDD991" xlink:href="#o"/><path stroke="#010A37" d="M4.564 7.5l3.88 32h31.113l3.879-32H4.564z"/></g><g transform="translate(8 32)"><use fill="#D8D8D8" xlink:href="#p"/><path stroke="#010A37" d="M8.5 64.5h15V32a7.5 7.5 0 00-15 0v32.5z"/></g><g transform="translate(8 32)"><use fill="#1D848C" xlink:href="#q"/><path stroke="#010A37" d="M8.5 64.5h15V32a7.5 7.5 0 00-15 0v32.5z"/></g><path fill="#010A37" d="M20 66a1 1 0 110-2 1 1 0 010 2zm0 4a1 1 0 110-2 1 1 0 010 2zm0 4a1 1 0 110-2 1 1 0 010 2zm0 4a1 1 0 110-2 1 1 0 010 2zm8-12a1 1 0 110-2 1 1 0 010 2zm0 4a1 1 0 110-2 1 1 0 010 2zm0 4a1 1 0 110-2 1 1 0 010 2zm0 4a1 1 0 110-2 1 1 0 010 2zm-4-12a1 1 0 110-2 1 1 0 010 2zm0 4a1 1 0 110-2 1 1 0 010 2zm0 4a1 1 0 110-2 1 1 0 010 2zm0 4a1 1 0 110-2 1 1 0 010 2zm-4 4a1 1 0 110-2 1 1 0 010 2zm8 0a1 1 0 110-2 1 1 0 010 2zm-4 0a1 1 0 110-2 1 1 0 010 2zm-4 4a1 1 0 110-2 1 1 0 010 2zm8 0a1 1 0 110-2 1 1 0 010 2zm-4 0a1 1 0 110-2 1 1 0 010 2zm-4 4a1 1 0 110-2 1 1 0 010 2zm8 0a1 1 0 110-2 1 1 0 010 2zm-4 0a1 1 0 110-2 1 1 0 010 2zm-4 4a1 1 0 110-2 1 1 0 010 2zm8 0a1 1 0 110-2 1 1 0 010 2zm-4 0a1 1 0 110-2 1 1 0 010 2z" opacity=".25"/><g transform="translate(8 32)"><use fill="#1D848C" xlink:href="#r"/><path stroke="#010A37" d="M24.5 64.5h15V48a7.5 7.5 0 00-15 0v16.5z"/></g><path fill="#010A37" d="M36 82a1 1 0 110-2 1 1 0 010 2zm0 4a1 1 0 110-2 1 1 0 010 2zm0 4a1 1 0 110-2 1 1 0 010 2zm0 4a1 1 0 110-2 1 1 0 010 2zm8-12a1 1 0 110-2 1 1 0 010 2zm0 4a1 1 0 110-2 1 1 0 010 2zm0 4a1 1 0 110-2 1 1 0 010 2zm0 4a1 1 0 110-2 1 1 0 010 2zm-4-12a1 1 0 110-2 1 1 0 010 2zm0 4a1 1 0 110-2 1 1 0 010 2zm0 4a1 1 0 110-2 1 1 0 010 2zm0 4a1 1 0 110-2 1 1 0 010 2z" opacity=".25"/><g transform="translate(8 32)"><use fill="#53C1BD" xlink:href="#s"/><path stroke="#010A37" d="M16.5 64.5h15V8a7.5 7.5 0 00-15 0v56.5z"/></g><path fill="#010A37" d="M28 42a1 1 0 110-2 1 1 0 010 2zm0 4a1 1 0 110-2 1 1 0 010 2zm0 4a1 1 0 110-2 1 1 0 010 2zm0 4a1 1 0 110-2 1 1 0 010 2zm8-12a1 1 0 110-2 1 1 0 010 2zm0 4a1 1 0 110-2 1 1 0 010 2zm0 4a1 1 0 110-2 1 1 0 010 2zm0 4a1 1 0 110-2 1 1 0 010 2zm-4-12a1 1 0 110-2 1 1 0 010 2zm0 4a1 1 0 110-2 1 1 0 010 2zm0 4a1 1 0 110-2 1 1 0 010 2zm0 4a1 1 0 110-2 1 1 0 010 2zm-4 4a1 1 0 110-2 1 1 0 010 2zm8 0a1 1 0 110-2 1 1 0 010 2zm-4 0a1 1 0 110-2 1 1 0 010 2zm-4 4a1 1 0 110-2 1 1 0 010 2zm8 0a1 1 0 110-2 1 1 0 010 2zm-4 0a1 1 0 110-2 1 1 0 010 2zm-4 4a1 1 0 110-2 1 1 0 010 2zm8 0a1 1 0 110-2 1 1 0 010 2zm-4 0a1 1 0 110-2 1 1 0 010 2zm-4 4a1 1 0 110-2 1 1 0 010 2zm8 0a1 1 0 110-2 1 1 0 010 2zm-4 0a1 1 0 110-2 1 1 0 010 2zm-4 4a1 1 0 110-2 1 1 0 010 2zm8 0a1 1 0 110-2 1 1 0 010 2zm-4 0a1 1 0 110-2 1 1 0 010 2zm-4 4a1 1 0 110-2 1 1 0 010 2zm8 0a1 1 0 110-2 1 1 0 010 2zm-4 0a1 1 0 110-2 1 1 0 010 2zm-4 4a1 1 0 110-2 1 1 0 010 2zm8 0a1 1 0 110-2 1 1 0 010 2zm-4 0a1 1 0 110-2 1 1 0 010 2zm-4 4a1 1 0 110-2 1 1 0 010 2zm8 0a1 1 0 110-2 1 1 0 010 2zm-4 0a1 1 0 110-2 1 1 0 010 2zm-4 4a1 1 0 110-2 1 1 0 010 2zm8 0a1 1 0 110-2 1 1 0 010 2zm-4 0a1 1 0 110-2 1 1 0 010 2zm-4 4a1 1 0 110-2 1 1 0 010 2zm8 0a1 1 0 110-2 1 1 0 010 2zm-4 0a1 1 0 110-2 1 1 0 010 2z" opacity=".5"/></g></svg>