<svg xmlns="http://www.w3.org/2000/svg" xmlns:xlink="http://www.w3.org/1999/xlink" viewBox="0 0 160 160"><defs><path id="a" d="M8 0h72a8 8 0 018 8v24H0V8a8 8 0 018-8z"/><path id="c" d="M8 0h56a8 8 0 018 8v25H0V8a8 8 0 018-8z"/><path id="e" d="M8 0h40a8 8 0 018 8v25H0V8a8 8 0 018-8z"/><path id="g" d="M38 10a4 4 0 01-4-4c0-2.21 1.79-6 4-6s4 3.79 4 6a4 4 0 01-4 4zm-12 0a4 4 0 01-4-4c0-2.21 1.79-6 4-6s4 3.79 4 6a4 4 0 01-4 4zm36 0a4 4 0 01-4-4c0-2.21 1.79-6 4-6s4 3.79 4 6a4 4 0 01-4 4zm-12 0a4 4 0 01-4-4c0-2.21 1.79-6 4-6s4 3.79 4 6a4 4 0 01-4 4z"/><path id="h" d="M16 0c8.837 0 16 7.163 16 16v40H0V16C0 7.163 7.163 0 16 0z"/><path id="i" d="M12 55h8v21a4 4 0 11-8 0V55z"/><path id="j" d="M8 16a2 2 0 012 2v28a2 2 0 11-4 0V18a2 2 0 012-2zm8 0a2 2 0 012 2v28a2 2 0 11-4 0V18a2 2 0 012-2zm8 0a2 2 0 012 2v28a2 2 0 11-4 0V18a2 2 0 012-2z"/><path id="k" d="M32 32c-6.627 0-12-5.373-12-12S25.373 8 32 8s12 5.373 12 12-5.373 12-12 12zm0-4a8 8 0 100-16 8 8 0 000 16z"/><path id="l" d="M0 0h32v40H0z"/><path id="m" d="M18 8h4l2 2v6h-8v-6z"/><path id="n" d="M9 4L0 0v8z"/><path id="p" d="M9 4L0 0v8z"/><path id="q" d="M2 0h28l2 5H0z"/><path id="r" d="M0 55h32l-2 5H2z"/><path id="s" d="M0 0h32v52H0V2z"/><path id="u" d="M12-10h8v73h-8z"/><ellipse id="w" cx="18" cy="2" rx="6" ry="2"/><circle id="v" cx="12" cy="20" r="12"/><rect id="o" width="16" height="8" x="8" rx="2"/></defs><g fill="none" fill-rule="evenodd"><ellipse cx="80" cy="130" fill="#B3BEF1" opacity=".5" rx="70" ry="15"/><g transform="translate(36 104)"><mask id="b" fill="#fff"><use xlink:href="#a"/></mask><use fill="#FABCBB" xlink:href="#a"/><path fill="#FB8B8A" d="M0 24h88v8H0z" mask="url(#b)"/><path stroke="#010A37" d="M.5 31.5h87V8A7.5 7.5 0 0080 .5H8A7.5 7.5 0 00.5 8v23.5z"/></g><g transform="translate(44 72)"><mask id="d" fill="#fff"><use xlink:href="#c"/></mask><use fill="#FABCBB" xlink:href="#c"/><path fill="#FB8B8A" d="M0 25h72v8H0z" mask="url(#d)"/></g><path stroke="#010A37" d="M44.5 104.5h71V80a7.5 7.5 0 00-7.5-7.5H52a7.5 7.5 0 00-7.5 7.5v24.5z"/><g transform="translate(52 40)"><mask id="f" fill="#fff"><use xlink:href="#e"/></mask><use fill="#FABCBB" xlink:href="#e"/><path stroke="#010A37" d="M.5 32.5h55V8A7.5 7.5 0 0048 .5H8A7.5 7.5 0 00.5 8v24.5z"/><path fill="#FB8B8A" d="M1 24h54v8H1z" mask="url(#f)"/><path stroke="#010A37" d="M.5 32.5h55V8A7.5 7.5 0 0048 .5H8A7.5 7.5 0 00.5 8v24.5z"/></g><g transform="translate(36 31)"><use fill="#FB8B8A" xlink:href="#g"/><path stroke="#010A37" d="M38 9.5A3.5 3.5 0 0041.5 6c0-2.35-1.863-5.5-3.5-5.5S34.5 3.65 34.5 6A3.5 3.5 0 0038 9.5zm-12 0A3.5 3.5 0 0029.5 6c0-2.35-1.863-5.5-3.5-5.5S22.5 3.65 22.5 6A3.5 3.5 0 0026 9.5zm36 0A3.5 3.5 0 0065.5 6c0-2.35-1.863-5.5-3.5-5.5S58.5 3.65 58.5 6A3.5 3.5 0 0062 9.5zm-12 0A3.5 3.5 0 0053.5 6c0-2.35-1.863-5.5-3.5-5.5S46.5 3.65 46.5 6A3.5 3.5 0 0050 9.5z"/></g><g transform="translate(72 56)"><use fill="#FDD991" xlink:href="#h"/><path stroke="#010A37" d="M.5 55.5h31V16C31.5 7.44 24.56.5 16 .5 7.44.5.5 7.44.5 16v39.5z"/></g><g transform="translate(72 56)"><use fill="#CD9157" xlink:href="#i"/><path stroke="#010A37" d="M12.5 55.5V76a3.5 3.5 0 007 0V55.5h-7z"/></g><g transform="translate(72 56)"><use fill="#FFE6B3" xlink:href="#j"/><path stroke="#010A37" d="M8 16.5A1.5 1.5 0 006.5 18v28a1.5 1.5 0 003 0V18A1.5 1.5 0 008 16.5zm8 0a1.5 1.5 0 00-1.5 1.5v28a1.5 1.5 0 003 0V18a1.5 1.5 0 00-1.5-1.5zm8 0a1.5 1.5 0 00-1.5 1.5v28a1.5 1.5 0 003 0V18a1.5 1.5 0 00-1.5-1.5z"/></g><g transform="translate(106 96)"><use fill="#F3F4FA" xlink:href="#k"/><path stroke="#010A37" d="M32 31.5c6.351 0 11.5-5.149 11.5-11.5S38.351 8.5 32 8.5 20.5 13.649 20.5 20 25.649 31.5 32 31.5zm0-3a8.5 8.5 0 110-17 8.5 8.5 0 010 17z"/></g><g transform="translate(106 96)"><use fill="#F3F4FA" xlink:href="#l"/><path stroke="#010A37" d="M.5.5h31v39H.5z"/></g><g transform="translate(106 96)"><use fill="#53C1BD" xlink:href="#m"/><path stroke="#010A37" d="M18.207 8.5L16.5 10.207V15.5h7v-5.293L21.793 8.5h-3.586z"/></g><path stroke="#010A37" d="M126 96v9"/><g transform="translate(72 128)"><use fill="#5E6EBF" xlink:href="#n"/><path stroke="#010A37" d="M7.769 4L.5.77v6.46L7.769 4z"/></g><path stroke="#010A37" stroke-linecap="round" d="M80 132h-5"/><g transform="translate(72 128)"><use fill="#5E6EBF" xlink:href="#o"/><rect width="15" height="7" x="8.5" y=".5" stroke="#010A37" rx="2"/></g><g transform="matrix(-1 0 0 1 104 128)"><use fill="#5E6EBF" xlink:href="#p"/><path stroke="#010A37" d="M7.769 4L.5.77v6.46L7.769 4z"/></g><path stroke="#010A37" stroke-linecap="round" d="M96 132h5"/><path stroke="#010A37" stroke-width="2" d="M81 135l14-6"/><g transform="matrix(-1 0 0 1 56 76)"><use fill="#F3F4FA" xlink:href="#q"/><path stroke="#010A37" d="M2.339.5l-1.6 4H31.26l-1.6-4H2.34z"/></g><g transform="matrix(-1 0 0 1 56 76)"><use fill="#F3F4FA" xlink:href="#r"/><path stroke="#010A37" d="M.739 55.5l1.6 4H29.66l1.6-4H.74z"/></g><g transform="matrix(-1 0 0 1 56 80)"><mask id="t" fill="#fff"><use xlink:href="#s"/></mask><use fill="#5E6EBF" xlink:href="#s"/><g mask="url(#t)" transform="rotate(45 16 26.5)"><use fill="#B3BEF1" xlink:href="#u"/><path stroke="#010A37" d="M12.5-9.5h7v72h-7z"/></g><path stroke="#010A37" d="M.5.5v51h31V.5H.5z"/></g><g transform="matrix(-1 0 0 1 64 104)"><use fill="#FDD991" xlink:href="#v"/><circle cx="12" cy="20" r="11.5" stroke="#010A37"/></g><path stroke="#010A37" stroke-linecap="round" d="M52 112v-8"/><g transform="matrix(-1 0 0 1 64 104)"><use fill="#53C1BD" xlink:href="#w"/><ellipse cx="18" cy="2" stroke="#010A37" rx="5.5" ry="1.5"/></g></g></svg>