<svg xmlns="http://www.w3.org/2000/svg" xmlns:xlink="http://www.w3.org/1999/xlink" viewBox="0 0 160 160"><defs><path id="a" d="M24 44h8v44h-8z"/><path id="b" d="M8 16L28 0l20 16v32H8V16z"/><path id="d" d="M0 44h56v4H0z"/><path id="e" d="M12 32L44 8l32 24v64H12V32z"/><path id="f" d="M4.981 40L0 33.298 44 0l44 33.298L83.019 40 44 10.471z"/><path id="g" d="M8 0h32l8 24H0z"/><path id="h" d="M0 20h48v4H0z"/><path id="j" d="M17.732 14a2 2 0 11-3.464-2 2 2 0 013.465-2h12.535a2 2 0 113.464 2 2 2 0 01-3.465 2H17.733z"/><path id="m" d="M54 136h-4v-7a1 1 0 10-2 0v7h-4v-7a1 1 0 10-2 0v7h-4v-7a1 1 0 10-2 0v7h-4v-7a1 1 0 10-2 0v7h-4v-7a1 1 0 10-2 0v7h-4v-8a8 8 0 018-8h24a8 8 0 018 8v8h-4v-7a1 1 0 10-2 0v7z"/><circle id="c" cx="28" cy="38" r="2"/><circle id="k" cx="8" cy="8" r="8"/><rect id="i" width="40" height="4" x="4" rx="2"/></defs><g fill="none" fill-rule="evenodd"><ellipse cx="80" cy="130" fill="#B3BEF1" opacity=".5" rx="70" ry="15"/><g transform="translate(16 48)"><use fill="#CD9157" xlink:href="#a"/><path stroke="#010A37" d="M24.5 44.5h7v43h-7z"/><use fill="#FDD991" xlink:href="#b"/><path stroke="#010A37" d="M8.5 16.24V47.5h39V16.24L28 .64 8.5 16.24z"/><circle cx="28" cy="28" r="4" fill="#010A37"/><use fill="#CD9157" xlink:href="#c"/><circle cx="28" cy="38" r="1.5" stroke="#010A37"/><path stroke="#010A37" stroke-linecap="round" stroke-width="4" d="M56 24L28 0 0 24"/><use fill="#6F451F" xlink:href="#d"/><path stroke="#010A37" d="M.5 44.5h55v3H.5z"/></g><g transform="translate(68 40)"><use fill="#FB8B8A" xlink:href="#e"/><path stroke="#010A37" d="M12.5 32.25V95.5h63V32.25L44 8.625 12.5 32.25z"/></g><path fill="#5E6EBF" d="M81 120h62v15H81z"/><path fill="#010A37" d="M112 96c6.627 0 12 5.373 12 12v28h-24v-28c0-6.627 5.373-12 12-12z"/><g fill-rule="nonzero" transform="translate(68 40)"><use fill="#5E6EBF" fill-rule="evenodd" xlink:href="#f"/><path stroke="#010A37" d="M5.082 39.297L44 9.844l38.918 29.453 4.385-5.899L44 .627.697 33.398l4.385 5.899z"/></g><g transform="translate(52 112)"><use fill="#53C1BD" xlink:href="#g"/><path stroke="#010A37" d="M8.36.5l-7.666 23h46.612L39.64.5H8.36z"/></g><g transform="translate(52 112)"><use fill="#1D848C" xlink:href="#h"/><path stroke="#010A37" d="M.5 20.5h47v3H.5z"/></g><g transform="translate(52 112)"><use fill="#BAECEA" xlink:href="#i"/><rect width="39" height="3" x="4.5" y=".5" stroke="#010A37" rx="1.5"/></g><g transform="translate(52 112)"><use fill="#F3F4FA" xlink:href="#j"/><path stroke="#010A37" d="M17.3 13.75l.144-.25h13.112l.144.25a1.499 1.499 0 002.8-.75c0-.268-.07-.524-.2-.75l-.145-.25.145-.25a1.5 1.5 0 00-2.6-1.5l-.144.25H17.444l-.144-.25a1.499 1.499 0 00-2.8.75c0 .268.07.524.2.75l.145.25-.145.25a1.5 1.5 0 002.6 1.5z"/></g><g transform="translate(136 120)"><mask id="l" fill="#fff"><use xlink:href="#k"/></mask><use fill="#1D848C" xlink:href="#k"/><circle cx="-2" cy="8" r="7.5" stroke="#F3F4FA" mask="url(#l)"/><circle cx="18" cy="8" r="7.5" stroke="#F3F4FA" mask="url(#l)"/><circle cx="8" cy="8" r="7.5" stroke="#010A37"/></g><use fill="#FB8B8A" xlink:href="#m"/><path stroke="#010A37" d="M53.5 135.5V129a1.5 1.5 0 013 0v6.5h3V128a7.5 7.5 0 00-7.5-7.5H28a7.5 7.5 0 00-7.5 7.5v7.5h3V129a1.5 1.5 0 013 0v6.5h3V129a1.5 1.5 0 013 0v6.5h3V129a1.5 1.5 0 013 0v6.5h3V129a1.5 1.5 0 013 0v6.5h3V129a1.5 1.5 0 013 0v6.5h3z"/></g></svg>