<svg xmlns="http://www.w3.org/2000/svg" xmlns:xlink="http://www.w3.org/1999/xlink" viewBox="0 0 160 160"><defs><path id="a" d="M24 0h40c6.627 0 12 5.373 12 12v84H12V12c0-6.627 5.373-12 12-12z"/><path id="b" d="M24 0v65H0V24C0 10.745 10.745 0 24 0z"/><path id="c" d="M0 64h24v4H0z"/><path id="d" d="M0 0c0 6.627 5.373 12 12 12S24 6.627 24 0H0z"/><path id="e" d="M4 0a8 8 0 1016 0H4z"/><path id="f" d="M52 32C52 14.327 41.255 0 28 0S4 14.327 4 32"/><path id="h" d="M0 2h40v8H0z"/><path id="j" d="M14 2h12v8H14z"/><path id="l" d="M44 56v4H0v-4c0-8.837 7.163-16 16-16h4V0h24v56z"/><path id="m" d="M32 0h12v24c-6.627 0-12-5.373-12-12V0z"/><path id="n" d="M41 64a1 1 0 00-2 0h-4a1 1 0 00-2 0h-4a1 1 0 00-2 0h-4a1 1 0 00-2 0h-4a1 1 0 00-2 0h-4a1 1 0 00-2 0H5a1 1 0 00-2 0H0v-5h44v5h-3z"/><path id="o" d="M26 8h20v5H26z"/><path id="q" d="M4 0h8v32H4z"/><path id="s" d="M0 0c13.255 0 24 10.745 24 24v41H0V0z"/><path id="t" d="M0 64h24v4H0z"/><rect id="g" width="56" height="16" y="32" rx="2"/><rect id="i" width="16" height="12" x="12" rx="2"/><rect id="k" width="5" height="4" x="24" y="4" rx="2"/><rect id="p" width="4" height="9" x="36" y="6" rx="2"/><rect id="u" width="8" height="12" x="8" y="27" rx="2"/><circle id="r" cx="8" cy="16" r="8"/></defs><g fill="none" fill-rule="evenodd"><ellipse cx="80" cy="130" fill="#B3BEF1" opacity=".5" rx="70" ry="15"/><g transform="translate(40 40)"><use fill="#FFF" xlink:href="#a"/><path stroke="#010A37" d="M12.5 95.5h63V12C75.5 5.649 70.351.5 64 .5H24C17.649.5 12.5 5.649 12.5 12v83.5z"/></g><g transform="translate(40 40)"><use fill="#FFF" xlink:href="#b"/><path stroke="#010A37" d="M23.5.505C10.752.771.5 11.188.5 24v40.5h23V.505z"/></g><g transform="translate(40 40)"><use fill="#53C1BD" xlink:href="#c"/><path stroke="#010A37" d="M.5 64.5h23v3H.5z"/></g><g transform="translate(72 40)"><use fill="#53C1BD" xlink:href="#d"/><path stroke="#010A37" d="M.51.5c.262 6.12 5.306 11 11.49 11S23.228 6.62 23.49.5H.51z"/></g><g transform="translate(72 40)"><use fill="#F3F4FA" xlink:href="#e"/><path stroke="#010A37" d="M4.516.5a7.5 7.5 0 0014.968 0H4.516z"/></g><g transform="translate(96 88)"><use fill="#FB8B8A" xlink:href="#f"/><path stroke="#010A37" d="M51.497 31.5C51.297 14.308 40.818.5 28 .5S4.703 14.308 4.503 31.5h46.994z"/></g><g transform="translate(96 88)"><use fill="#A65C5B" xlink:href="#g"/><rect width="55" height="15" x=".5" y="32.5" stroke="#010A37" rx="2"/></g><path fill="#FAE1E1" d="M102 123a1 1 0 011 1v8a1 1 0 11-2 0v-8a1 1 0 011-1zm4 0a1 1 0 011 1v8a1 1 0 11-2 0v-8a1 1 0 011-1zm4 0a1 1 0 011 1v8a1 1 0 11-2 0v-8a1 1 0 011-1zm4 0a1 1 0 011 1v8a1 1 0 01-2 0v-8a1 1 0 011-1zm4 0a1 1 0 011 1v8a1 1 0 01-2 0v-8a1 1 0 011-1zm4 0a1 1 0 011 1v8a1 1 0 01-2 0v-8a1 1 0 011-1zm4 0a1 1 0 011 1v8a1 1 0 01-2 0v-8a1 1 0 011-1zm4 0a1 1 0 011 1v8a1 1 0 01-2 0v-8a1 1 0 011-1zm4 0a1 1 0 011 1v8a1 1 0 01-2 0v-8a1 1 0 011-1zm4 0a1 1 0 011 1v8a1 1 0 01-2 0v-8a1 1 0 011-1zm4 0a1 1 0 011 1v8a1 1 0 01-2 0v-8a1 1 0 011-1zm4 0a1 1 0 011 1v8a1 1 0 01-2 0v-8a1 1 0 011-1z" opacity=".25"/><g transform="translate(80 126)"><use fill="#5E6EBF" xlink:href="#h"/><path stroke="#010A37" d="M.5 2.5h39v7H.5z"/><use fill="#FDD991" xlink:href="#i"/><rect width="15" height="11" x="12.5" y=".5" stroke="#010A37" rx="2"/><use fill="#5E6EBF" xlink:href="#j"/><path stroke="#010A37" d="M14.5 2.5h11v7h-11z"/><use fill="#FDD991" xlink:href="#k"/><rect width="4" height="3" x="24.5" y="4.5" stroke="#010A37" rx="1.5"/><circle cx="32" cy="6" r="1" fill="#010A37"/><circle cx="36" cy="6" r="1" fill="#010A37"/></g><g transform="translate(16 72)"><use fill="#FDD991" xlink:href="#l"/><path stroke="#010A37" d="M43.5.5h-23v40H16C7.44 40.5.5 47.44.5 56v3.5h43V.5z"/></g><g transform="translate(16 72)"><use fill="#6F451F" xlink:href="#m"/><path stroke="#010A37" d="M32.5.5V12c0 6.184 4.88 11.228 11 11.49V.5h-11z"/></g><g transform="translate(16 72)"><use fill="#CD9157" xlink:href="#n"/><path stroke="#010A37" d="M41.415 63.5H43.5v-4H.5v4h2.085a1.5 1.5 0 012.83 0h3.17a1.5 1.5 0 012.83 0h3.17a1.5 1.5 0 012.83 0h3.17a1.5 1.5 0 012.83 0h3.17a1.5 1.5 0 012.83 0h3.17a1.5 1.5 0 012.83 0h3.17a1.5 1.5 0 012.83 0z"/></g><g transform="translate(16 72)"><use fill="#CD9157" xlink:href="#o"/><path stroke="#010A37" d="M26.5 8.5h19v4h-19z"/></g><g transform="translate(16 72)"><use fill="#CD9157" xlink:href="#p"/><rect width="3" height="8" x="36.5" y="6.5" stroke="#010A37" rx="1.5"/></g><g transform="translate(72 104)"><use fill="#53C1BD" xlink:href="#q"/><path stroke="#010A37" d="M4.5.5h7v31h-7z"/></g><path fill="#010A37" d="M88 119h1v2h-1z"/><g transform="translate(72 104)"><use fill="#FFF" xlink:href="#r"/><circle cx="8" cy="16" r="7.5" stroke="#010A37"/></g><path stroke="#010A37" stroke-linecap="round" d="M83 120h-3v-5"/><g transform="translate(104 40)"><use fill="#FFF" xlink:href="#s"/><path stroke="#010A37" d="M.5.505V64.5h23V24C23.5 11.188 13.248.771.5.505z"/></g><g transform="translate(104 40)"><use fill="#53C1BD" xlink:href="#t"/><path stroke="#010A37" d="M.5 64.5h23v3H.5z"/></g><g transform="translate(72 41)"><path stroke="#010A37" stroke-linecap="round" d="M0 0l12 30L24 0"/><use fill="#E1F5F4" xlink:href="#u"/><rect width="7" height="11" x="8.5" y="27.5" stroke="#010A37" rx="2"/><circle cx="12" cy="30" r="1" fill="#010A37"/></g></g></svg>