<svg xmlns="http://www.w3.org/2000/svg" xmlns:xlink="http://www.w3.org/1999/xlink" viewBox="0 0 160 160"><defs><rect id="a" width="24" height="40" rx="2"/><rect id="b" width="32" height="56" rx="4"/><rect id="d" width="24" height="40" rx="2"/><rect id="f" width="88" height="88" rx="4"/><rect id="l" width="16" height="16" rx="2"/><rect id="m" width="16" height="16" rx="2"/><path id="c" d="M4 4h24v20H4z"/><path id="e" d="M12 12l-4 8 4 8 4-8z"/><path id="g" d="M8 8h72v72H8z"/><path id="h" d="M0 8h8v48H0z"/><path id="i" d="M0 52h8v4H0z"/><path id="j" d="M0 8l4-8 4 8"/></defs><g fill="none" fill-rule="evenodd" transform="translate(10 48)"><ellipse cx="70" cy="82" fill="#B3BEF1" opacity=".5" rx="70" ry="15"/><g transform="translate(6 48)"><use fill="#FFF" xlink:href="#a"/><rect width="23" height="39" x=".5" y=".5" stroke="#010A37" rx="2"/></g><g transform="translate(22 32)"><use fill="#5E6EBF" xlink:href="#b"/><rect width="31" height="55" x=".5" y=".5" stroke="#010A37" rx="4"/></g><g transform="translate(22 32)"><use fill="#F3F4FA" xlink:href="#c"/><path stroke="#010A37" d="M4.5 4.5h23v19h-23z"/></g><use fill="#FFF" xlink:href="#d"/><rect width="23" height="39" x=".5" y=".5" stroke="#010A37" rx="2"/><use fill="#FB8B8A" xlink:href="#e"/><path stroke="#010A37" d="M12 13.118L8.559 20 12 26.882 15.441 20 12 13.118z"/><path fill="#FB8B8A" stroke="#010A37" d="M4 4L3 6l1 2 1-2zm16 29l-1 2 1 2 1-2z"/><g transform="translate(38)"><use fill="#53C1BD" xlink:href="#f"/><rect width="87" height="87" x=".5" y=".5" stroke="#010A37" rx="4"/></g><g transform="translate(38)"><use fill="#FFF" xlink:href="#g"/><path stroke="#010A37" d="M7.5 7.5h73v73h-73z"/></g><g transform="translate(94 56)"><path fill="#F3F4FA" d="M0 0h24v24H0z"/><circle cx="12" cy="12" r="8"/></g><path stroke="#010A37" stroke-linecap="round" stroke-width="2" d="M81.63 66.869l5.712-5.711a.538.538 0 11.761.761l-5.711 5.711 5.711 5.712a.538.538 0 01-.761.761l-5.712-5.711-5.71 5.711a.538.538 0 01-.762-.761l5.711-5.712-5.711-5.71a.538.538 0 01.761-.762l5.711 5.711z"/><g transform="translate(46 56)"><path fill="#F3F4FA" d="M0 0h24v24H0z"/><circle cx="12" cy="12" r="6" stroke="#010A37" stroke-width="4"/></g><circle cx="12" cy="12" r="8" transform="translate(94 32)"/><g transform="translate(70 32)"><path fill="#F3F4FA" d="M0 0h24v24H0z"/><circle cx="12" cy="12" r="8"/></g><path stroke="#010A37" stroke-linecap="round" stroke-width="2" d="M57.63 42.869l5.712-5.711a.538.538 0 11.761.761l-5.711 5.711 5.711 5.712a.538.538 0 01-.761.761l-5.712-5.711-5.71 5.711a.538.538 0 01-.762-.761l5.711-5.712-5.711-5.71a.538.538 0 01.761-.762l5.711 5.711z"/><g transform="translate(94 8)"><path fill="#F3F4FA" d="M0 0h24v24H0z"/><circle cx="12" cy="12" r="8"/></g><circle cx="12" cy="12" r="6" stroke="#010A37" stroke-width="4" transform="translate(70 8)"/><g transform="translate(46 8)"><path fill="#F3F4FA" d="M0 0h24v24H0z"/><circle cx="12" cy="12" r="8"/></g><g transform="translate(102 32)"><use fill="#FDD991" xlink:href="#h"/><path stroke="#010A37" d="M.5 8.5h7v47h-7z"/></g><g transform="translate(102 32)"><use fill="#FB8B8A" xlink:href="#i"/><path stroke="#010A37" d="M.5 52.5h7v3h-7z"/></g><g transform="translate(102 32)"><mask id="k" fill="#fff"><use xlink:href="#j"/></mask><use fill="#F3F4FA" xlink:href="#j"/><path stroke="#010A37" d="M.809 7.5h6.382L4 1.118.809 7.5z"/><circle cx="4" r="4" fill="#010A37" mask="url(#k)"/></g><g transform="translate(26 72)"><use fill="#FB8B8A" xlink:href="#l"/><rect width="15" height="15" x=".5" y=".5" stroke="#010A37" rx="2"/></g><path fill="#FFF" d="M31 79a2 2 0 110-4 2 2 0 010 4zm6 0a2 2 0 110-4 2 2 0 010 4zm0 6a2 2 0 110-4 2 2 0 010 4zm-6 0a2 2 0 110-4 2 2 0 010 4z"/><g transform="translate(124 72)"><use fill="#5E6EBF" xlink:href="#m"/><rect width="15" height="15" x=".5" y=".5" stroke="#010A37" rx="2"/><circle cx="8" cy="8" r="4" fill="#F3F4FA"/></g></g></svg>