<svg xmlns="http://www.w3.org/2000/svg" xmlns:xlink="http://www.w3.org/1999/xlink" viewBox="0 0 160 160"><defs><path id="a" d="M8 72h72V48H8v24zm0 8v36H0V4a4 4 0 118 0v4h72V4a4 4 0 118 0v112h-8V80H8zm0-40h72V16H8v24z"/><path id="i" d="M0 8l5-8h2l5 8v40H0V8z"/><path id="j" d="M0 11h12v34H0z"/><path id="k" d="M0 8l5-8h2l5 8v40H0V8z"/><path id="l" d="M0 11h12v34H0z"/><path id="n" d="M55 56h5v8h-5z"/><path id="o" d="M4 56h5v8H4z"/><path id="p" d="M59 52a5 5 0 015 5v35h-5V52z"/><path id="q" d="M5 52v40H0V57a5 5 0 015-5z"/><path id="r" d="M32 16c13.255 0 24 10.745 24 24v8H8v-8c0-13.255 10.745-24 24-24z"/><path id="s" d="M55 40h1a4 4 0 110 8h-1v-8z"/><path id="t" d="M4 40h1a4 4 0 110 8H4v-8z"/><path id="u" d="M8 52h48v36H8z"/><path id="v" d="M24 47h16v6H24z"/><path id="w" d="M40 104h16v8H40z"/><path id="x" d="M8 104h16v8H8z"/><path id="y" d="M12 87h8v18h-8z"/><path id="z" d="M44 87h8v18h-8z"/><path id="C" d="M40 72a8 8 0 10-16 0h16z"/><path id="F" d="M7.01 9.332A5.001 5.001 0 0110 4.416V2a2 2 0 114 0v2.416a5.001 5.001 0 012.99 4.916A9.996 9.996 0 0122 18H2a9.996 9.996 0 015.01-8.668z"/><rect id="b" width="8" height="24" x="64" rx="4"/><rect id="c" width="8" height="24" x="64" y="32" rx="4"/><rect id="d" width="8" height="24" x="48" rx="4"/><rect id="e" width="8" height="24" x="48" y="32" rx="4"/><rect id="f" width="8" height="24" x="32" rx="4"/><rect id="g" width="8" height="24" x="32" y="32" rx="4"/><rect id="D" width="24" height="40" y="20" rx="4"/><rect id="E" width="24" height="4" y="17" rx="2"/><circle id="h" cx="28" cy="28" r="28"/><circle id="m" cx="32" cy="4" r="4"/><circle id="A" cx="44" cy="36" r="4"/><circle id="B" cx="20" cy="36" r="4"/></defs><g fill="none" fill-rule="evenodd"><ellipse cx="80" cy="130" fill="#B3BEF1" opacity=".5" rx="70" ry="15"/><g transform="translate(56 20)"><use fill="#CD9157" xlink:href="#a"/><path stroke="#010A37" d="M80.5 72.5h-73v-25h73v25zm0 43h7V4a3.5 3.5 0 00-7 0v4.5h-73V4a3.5 3.5 0 00-7 0v111.5h7v-36h73v36zm-73-75v-25h73v25h-73z"/></g><g transform="translate(56 20)"><use fill="#5E6EBF" xlink:href="#b"/><rect width="7" height="23" x="64.5" y=".5" stroke="#010A37" rx="3.5"/></g><g transform="translate(56 20)"><use fill="#5E6EBF" xlink:href="#c"/><rect width="7" height="23" x="64.5" y="32.5" stroke="#010A37" rx="3.5"/></g><g transform="translate(56 20)"><use fill="#53C1BD" xlink:href="#d"/><rect width="7" height="23" x="48.5" y=".5" stroke="#010A37" rx="3.5"/></g><g transform="translate(56 20)"><use fill="#53C1BD" xlink:href="#e"/><rect width="7" height="23" x="48.5" y="32.5" stroke="#010A37" rx="3.5"/></g><g transform="translate(56 20)"><use fill="#FDD991" xlink:href="#f"/><rect width="7" height="23" x="32.5" y=".5" stroke="#010A37" rx="3.5"/></g><g transform="translate(56 20)"><use fill="#FDD991" xlink:href="#g"/><rect width="7" height="23" x="32.5" y="32.5" stroke="#010A37" rx="3.5"/></g><g transform="translate(92 80)"><use fill="#FDD991" xlink:href="#h"/><circle cx="28" cy="28" r="27.5" stroke="#010A37"/><circle cx="20" cy="20" r="4" fill="#010A37"/><circle cx="36" cy="20" r="4" fill="#010A37"/><path fill="#010A37" d="M16 32c0 6.627 5.373 12 12 12s12-5.373 12-12H16z"/></g><g transform="translate(100 88)"><use fill="#5E6EBF" xlink:href="#i"/><path stroke="#010A37" d="M.5 8.143V47.5h11V8.143L6.723.5H5.277L.5 8.143z"/></g><g transform="translate(100 88)"><use fill="#5E6EBF" xlink:href="#j"/><path stroke="#010A37" d="M.5 11.5h11v33H.5z"/></g><path fill="#010A37" d="M100 128h12v2h-12zm0-26h12v2h-12z"/><g transform="rotate(90 -2 122)"><use fill="#FB8B8A" xlink:href="#k"/><path stroke="#010A37" d="M.5 8.143V47.5h11V8.143L6.723.5H5.277L.5 8.143z"/></g><g transform="rotate(90 -2 122)"><use fill="#FB8B8A" xlink:href="#l"/><path stroke="#010A37" d="M.5 11.5h11v33H.5z"/></g><path fill="#010A37" d="M80 124v12h-2v-12zm26 0v12h-2v-12z"/><g transform="translate(12 24)"><use fill="#FDD991" xlink:href="#m"/><circle cx="32" cy="4" r="3.5" stroke="#010A37"/><use fill="#FDD991" xlink:href="#n"/><path stroke="#010A37" d="M55.5 56.5h4v7h-4z"/><use fill="#FDD991" xlink:href="#o"/><path stroke="#010A37" d="M4.5 56.5h4v7h-4z"/><use fill="#FB8B8A" xlink:href="#p"/><path stroke="#010A37" d="M59.5 52.527V91.5h4V57a4.5 4.5 0 00-4-4.473z"/><use fill="#FB8B8A" xlink:href="#q"/><path stroke="#010A37" d="M4.5 52.527A4.5 4.5 0 00.5 57v34.5h4V52.527z"/><use fill="#53C1BD" xlink:href="#r"/><path stroke="#010A37" d="M8.5 47.5h47V40c0-12.979-10.521-23.5-23.5-23.5S8.5 27.021 8.5 40v7.5z"/><use fill="#FB8B8A" xlink:href="#s"/><path stroke="#010A37" d="M55.5 40.5v7h.5a3.5 3.5 0 000-7h-.5z"/><g transform="matrix(-1 0 0 1 13 0)"><use fill="#FB8B8A" xlink:href="#t"/><path stroke="#010A37" d="M4.5 40.5v7H5a3.5 3.5 0 000-7h-.5z"/></g><use fill="#53C1BD" xlink:href="#u"/><path stroke="#010A37" d="M8.5 52.5h47v35h-47z"/><circle cx="46" cy="62" r="2" fill="#010A37"/><circle cx="18" cy="62" r="2" fill="#010A37"/><use fill="#FDD991" xlink:href="#v"/><path stroke="#010A37" d="M24.5 47.5h15v5h-15z"/><use fill="#FB8B8A" xlink:href="#w"/><path stroke="#010A37" d="M40.5 104.5h15v7h-15z"/><use fill="#FB8B8A" xlink:href="#x"/><path stroke="#010A37" d="M8.5 104.5h15v7h-15z"/><use fill="#FDD991" xlink:href="#y"/><path stroke="#010A37" d="M12.5 87.5h7v17h-7z"/><use fill="#FDD991" xlink:href="#z"/><path stroke="#010A37" d="M44.5 87.5h7v17h-7z"/><use fill="#FDD991" xlink:href="#A"/><circle cx="44" cy="36" r="5" stroke="#010A37" stroke-width="2"/><use fill="#FDD991" xlink:href="#B"/><circle cx="20" cy="36" r="5" stroke="#010A37" stroke-width="2"/><use fill="#FDD991" xlink:href="#C"/><path stroke="#010A37" d="M39.484 71.5a7.5 7.5 0 00-14.968 0h14.968z"/><path fill="#010A37" fill-opacity=".1" d="M45 88h6v4h-6zm-32 0h6v4h-6zm32 8h6v4h-6zm-32 0h6v4h-6z"/><path stroke="#010A37" d="M32 7v10"/></g><g transform="translate(124 76)"><use fill="#E1F5F4" xlink:href="#D"/><rect width="23" height="39" x=".5" y="20.5" stroke="#010A37" rx="4"/><rect width="10" height="1" y="48" fill="#010A37" rx=".5"/><rect width="10" height="1" y="45" fill="#010A37" rx=".5"/><rect width="10" height="1" y="42" fill="#010A37" rx=".5"/><rect width="10" height="1" y="39" fill="#010A37" rx=".5"/><rect width="10" height="1" y="36" fill="#010A37" rx=".5"/><rect width="10" height="1" y="33" fill="#010A37" rx=".5"/><rect width="10" height="1" y="30" fill="#010A37" rx=".5"/><rect width="10" height="1" y="27" fill="#010A37" rx=".5"/><use fill="#B3BEF1" xlink:href="#E"/><rect width="23" height="3" x=".5" y="17.5" stroke="#010A37" rx="1.5"/><use fill="#FDEED1" xlink:href="#F"/><path stroke="#010A37" d="M2.513 17.5h18.974a9.495 9.495 0 00-4.748-7.735l-.27-.156.021-.31a4.5 4.5 0 00-2.69-4.425l-.3-.13V2a1.5 1.5 0 00-3 0v2.743l-.3.131A4.5 4.5 0 007.51 9.3l.02.31-.27.156A9.495 9.495 0 002.514 17.5z"/></g></g></svg>