<svg xmlns="http://www.w3.org/2000/svg" xmlns:xlink="http://www.w3.org/1999/xlink" viewBox="0 0 160 160"><defs><path id="b" d="M22 63h4v57h-4z"/><path id="k" d="M6 8h5v24H6a4 4 0 01-4-4V12a4 4 0 014-4z"/><path id="m" d="M77 8h5a4 4 0 014 4v16a4 4 0 01-4 4h-5V8z"/><path id="o" d="M2 18h1v4H2a2 2 0 110-4z"/><path id="p" d="M87 18h1v4h-1a2 2 0 110-4z"/><path id="q" d="M25 16h38v8H25z"/><ellipse id="a" cx="24" cy="32" rx="24" ry="32"/><ellipse id="d" cx="20" cy="28" rx="20" ry="28"/><ellipse id="f" cx="40" cy="24" rx="40" ry="24"/><rect id="c" width="12" height="32" x="18" y="88" rx="4"/><rect id="l" width="16" height="40" x="10" rx="4"/><rect id="n" width="16" height="40" x="62" rx="4"/><circle id="h" cx="16" cy="16" r="16"/><circle id="j" cx="32" cy="128" r="8"/></defs><g fill="none" fill-rule="evenodd"><ellipse cx="80" cy="130" fill="#B3BEF1" opacity=".5" rx="70" ry="15"/><g transform="translate(32 16)"><use fill="#5E6EBF" xlink:href="#a"/><ellipse cx="24" cy="32" stroke="#010A37" rx="23.5" ry="31.5"/></g><g transform="translate(32 16)"><use fill="#223274" xlink:href="#b"/><path stroke="#010A37" d="M22.5 63.5h3v56h-3z"/></g><g transform="translate(32 16)"><use fill="#5E6EBF" xlink:href="#c"/><rect width="11" height="31" x="18.5" y="88.5" stroke="#010A37" rx="4"/></g><g transform="translate(36 20)"><mask id="e" fill="#fff"><use xlink:href="#d"/></mask><use fill="#FFF" xlink:href="#d"/><ellipse cx="20" cy="28" stroke="#010A37" rx="19.5" ry="27.5"/><path stroke="#010A37" stroke-width=".5" d="M19.75.25v55.5h.5V.25h-.5zm-3 0v55.5h.5V.25h-.5zm-3 0v55.5h.5V.25h-.5zm-3 0v55.5h.5V.25h-.5zm-3 0v55.5h.5V.25h-.5zm-3 0v55.5h.5V.25h-.5zm18 0v55.5h.5V.25h-.5zm3 0v55.5h.5V.25h-.5zm3 0v55.5h.5V.25h-.5zm3 0v55.5h.5V.25h-.5zm3 0v55.5h.5V.25h-.5z" mask="url(#e)"/><path stroke="#010A37" stroke-width=".5" d="M19.75.25v55.5h.5V.25h-.5zm-3 0v55.5h.5V.25h-.5zm-3 0v55.5h.5V.25h-.5zm-3 0v55.5h.5V.25h-.5zm-3 0v55.5h.5V.25h-.5zm-3 0v55.5h.5V.25h-.5zm-3 0v55.5h.5V.25h-.5zm21 0v55.5h.5V.25h-.5zm3 0v55.5h.5V.25h-.5zm3 0v55.5h.5V.25h-.5zm3 0v55.5h.5V.25h-.5zm3 0v55.5h.5V.25h-.5zm3 0v55.5h.5V.25h-.5z" mask="url(#e)" transform="rotate(90 20 28)"/></g><g transform="translate(56 88)"><mask id="g" fill="#fff"><use xlink:href="#f"/></mask><use fill="#FB8B8A" xlink:href="#f"/><path fill="#F3F4FA" stroke="#010A37" d="M54.167 23v-4.167a.833.833 0 111.666 0V23H59a1 1 0 010 2h-3.167v4.167a.833.833 0 11-1.666 0V25h-3.334v4.167a.833.833 0 11-1.666 0V25h-3.334v4.167a.833.833 0 11-1.666 0V25h-3.334v4.167a.833.833 0 11-1.666 0V25h-3.334v4.167a.833.833 0 11-1.666 0V25h-3.334v4.167a.833.833 0 11-1.666 0V25h-3.334v4.167a.833.833 0 11-1.666 0V25H21a1 1 0 010-2h3.167v-4.167a.833.833 0 111.666 0V23h3.334v-4.167a.833.833 0 111.666 0V23h3.334v-4.167a.833.833 0 111.666 0V23h3.334v-4.167a.833.833 0 111.666 0V23h3.334v-4.167a.833.833 0 111.666 0V23h3.334v-4.167a.833.833 0 111.666 0V23h3.334z" mask="url(#g)"/><g mask="url(#g)"><ellipse cx="4" cy="24" stroke="#F3F4FA" stroke-width="4" rx="10" ry="22"/><ellipse cx="4" cy="24" stroke="#010A37" rx="11.5" ry="23.5"/></g><g mask="url(#g)"><ellipse cx="76" cy="24" stroke="#F3F4FA" stroke-width="4" rx="10" ry="22"/><ellipse cx="76" cy="24" stroke="#010A37" rx="11.5" ry="23.5"/></g><ellipse cx="40" cy="24" stroke="#010A37" rx="39.5" ry="23.5"/></g><g transform="translate(32 104)"><mask id="i" fill="#fff"><use xlink:href="#h"/></mask><use fill="#53C1BD" xlink:href="#h"/><ellipse cx="34" cy="16" stroke="#010A37" mask="url(#i)" rx="13.5" ry="15.5"/><ellipse cx="-2" cy="16" stroke="#010A37" mask="url(#i)" rx="13.5" ry="15.5"/><circle cx="16" cy="16" r="15.5" stroke="#010A37"/></g><use fill="#FFF" xlink:href="#j"/><circle cx="32" cy="128" r="7.5" stroke="#010A37"/><g transform="rotate(90 47 97)"><use fill="#FFF" xlink:href="#k"/><path stroke="#010A37" d="M10.5 31.5v-23H6A3.5 3.5 0 002.5 12v16A3.5 3.5 0 006 31.5h4.5z"/></g><g transform="rotate(90 47 97)"><use fill="#F3F4FA" xlink:href="#l"/><rect width="15" height="39" x="10.5" y=".5" stroke="#010A37" rx="4"/></g><path stroke="#010A37" d="M144 68h-40"/><g transform="rotate(90 47 97)"><use fill="#FFF" xlink:href="#m"/><path stroke="#010A37" d="M77.5 8.5v23H82a3.5 3.5 0 003.5-3.5V12A3.5 3.5 0 0082 8.5h-4.5z"/></g><g transform="rotate(90 47 97)"><use fill="#F3F4FA" xlink:href="#n"/><rect width="15" height="39" x="62.5" y=".5" stroke="#010A37" rx="4"/></g><path stroke="#010A37" d="M144 120h-40"/><g transform="rotate(90 47 97)"><use fill="#D8D8D8" xlink:href="#o"/><path stroke="#010A37" d="M2.5 21.5v-3H2a1.5 1.5 0 000 3h.5z"/></g><g transform="matrix(0 -1 -1 0 144 223)"><use fill="#D8D8D8" xlink:href="#p"/><path stroke="#010A37" d="M87.5 21.5v-3H87a1.5 1.5 0 000 3h.5z"/></g><g transform="rotate(90 47 97)"><use fill="#B3BEF1" xlink:href="#q"/><path stroke="#010A37" d="M25.5 16.5h37v7h-37z"/></g></g></svg>