<svg xmlns="http://www.w3.org/2000/svg" xmlns:xlink="http://www.w3.org/1999/xlink" viewBox="0 0 160 160"><defs><path id="b" d="M8 8h16v5H8z"/><path id="f" d="M4 44h24v16H4z"/><path id="g" d="M4 8h24v5H4z"/><path id="h" d="M8 0h16v9H8z"/><path id="i" d="M8 19h16v32H8z"/><path id="l" d="M4 0h40a4 4 0 014 4v8H0V4a4 4 0 014-4z"/><path id="o" d="M22 79h4v25h-4z"/><path id="s" d="M2 4h46v4H2a2 2 0 110-4z"/><path id="t" d="M36 0h12v5H36z"/><rect id="a" width="32" height="48" y="12" rx="4"/><rect id="c" width="24" height="9" x="4" rx="4"/><rect id="e" width="32" height="56" y="12" rx="2"/><rect id="j" width="48" height="24" rx="4"/><rect id="p" width="24" height="4" x="12" y="100" rx="2"/><rect id="q" width="32" height="16" rx="4"/><rect id="r" width="28" height="12" x="2" y="2" rx="2"/><ellipse id="m" cx="24" cy="40" rx="24" ry="40"/><ellipse id="n" cx="24" cy="40" rx="20" ry="36"/><circle id="d" cx="16" cy="36" r="8"/></defs><g fill="none" fill-rule="evenodd"><ellipse cx="80" cy="130" fill="#B3BEF1" opacity=".5" rx="70" ry="15"/><g transform="translate(72 76)"><use fill="#53C1BD" xlink:href="#a"/><rect width="31" height="47" x=".5" y="12.5" stroke="#010A37" rx="4"/></g><g transform="translate(72 76)"><use fill="#1D848C" xlink:href="#b"/><path stroke="#010A37" d="M8.5 8.5h15v4h-15z"/></g><g transform="translate(72 76)"><use fill="#53C1BD" xlink:href="#c"/><rect width="23" height="8" x="4.5" y=".5" stroke="#010A37" rx="4"/></g><g transform="translate(72 76)"><use fill="#FB8B8A" xlink:href="#d"/><circle cx="16" cy="36" r="7.5" stroke="#010A37"/></g><path fill="#010A37" d="M76 80h24v1H76z"/><g transform="translate(32 68)"><use fill="#FFF" xlink:href="#e"/><rect width="31" height="55" x=".5" y="12.5" stroke="#010A37" rx="2"/><use fill="#FB8B8A" xlink:href="#f"/><path stroke="#010A37" d="M4.5 44.5h23v15h-23z"/><use fill="#FDD991" xlink:href="#g"/><path stroke="#010A37" d="M4.5 8.5h23v4h-23z"/><use fill="#FFE6B3" xlink:href="#h"/><path stroke="#010A37" d="M8.5.5h15v8h-15z"/><use fill="#B3BEF1" xlink:href="#i"/><path stroke="#010A37" d="M8.5 19.5h15v31h-15z"/><circle cx="16" cy="4" r="1" fill="#010A37"/></g><g transform="translate(68 112)"><mask id="k" fill="#fff"><use xlink:href="#j"/></mask><use fill="#FDD991" xlink:href="#j"/><rect width="47" height="23" x=".5" y=".5" stroke="#010A37" rx="4"/><g mask="url(#k)"><use fill="#5E6EBF" xlink:href="#l"/><path stroke="#010A37" d="M.5 11.5h47V4A3.5 3.5 0 0044 .5H4A3.5 3.5 0 00.5 4v7.5z"/></g></g><g transform="translate(96 32)"><use fill="#5E6EBF" xlink:href="#m"/><ellipse cx="24" cy="40" stroke="#010A37" rx="23.5" ry="39.5"/></g><g transform="translate(96 32)"><use fill="#FFF" xlink:href="#n"/><ellipse cx="24" cy="40" stroke="#010A37" rx="19.5" ry="35.5"/></g><g transform="translate(96 32)"><use fill="#223274" xlink:href="#o"/><path stroke="#010A37" d="M22.5 79.5h3v24h-3z"/></g><g transform="translate(96 32)"><use fill="#5E6EBF" xlink:href="#p"/><rect width="23" height="3" x="12.5" y="100.5" stroke="#010A37" rx="1.5"/></g><g transform="translate(20 120)"><use fill="#FABCBB" xlink:href="#q"/><rect width="31" height="15" x=".5" y=".5" stroke="#010A37" rx="4"/></g><g transform="translate(20 120)"><use fill="#FAE1E1" xlink:href="#r"/><rect width="27" height="11" x="2.5" y="2.5" stroke="#010A37" stroke-opacity=".25" rx="2"/></g><g transform="translate(48 128)"><use fill="#BAECEA" xlink:href="#s"/><path stroke="#010A37" d="M47.5 7.5v-3H2a1.5 1.5 0 000 3h45.5z"/></g><g transform="translate(48 128)"><use fill="#D8D8D8" xlink:href="#t"/><path stroke="#010A37" d="M36.5.5h11v4h-11z"/></g><path fill="#5E6EBF" d="M85 129h2v3h-2z"/><path fill="#B3BEF1" d="M87 129h2v3h-2z"/><path fill="#5E6EBF" d="M89 129h2v3h-2z"/><path fill="#B3BEF1" d="M91 129h2v3h-2z"/><path fill="#5E6EBF" d="M93 129h2v3h-2z"/></g></svg>