<svg xmlns="http://www.w3.org/2000/svg" xmlns:xlink="http://www.w3.org/1999/xlink" viewBox="0 0 160 96"><defs><path id="a" d="M12.8 116.653h134.4v38.457H12.8z"/><path id="d" d="M0 0h7.68v38.457H0z"/><path id="e" d="M0 0h7.68v38.457H0z"/><path id="f" d="M0 0h7.68v38.457H0z"/><path id="g" d="M0 0h7.68v38.457H0z"/><path id="h" d="M51.84 87.81h56.32v25.638H51.84z"/><path id="i" d="M5.76 12.819v19.228H1.92V12.82c0-1.062.86-1.923 1.92-1.923s1.92.861 1.92 1.923z"/><path id="k" d="M5.76 12.819v19.228H1.92V12.82c0-1.062.86-1.923 1.92-1.923s1.92.861 1.92 1.923z"/><path id="m" d="M5.76 12.819v19.228H1.92V12.82c0-1.062.86-1.923 1.92-1.923s1.92.861 1.92 1.923z"/><path id="o" d="M5.76 12.819v19.228H1.92V12.82c0-1.062.86-1.923 1.92-1.923s1.92.861 1.92 1.923z"/><path id="q" d="M5.76 12.819v19.228H1.92V12.82c0-1.062.86-1.923 1.92-1.923s1.92.861 1.92 1.923z"/><path id="s" d="M5.76 12.819v19.228H1.92V12.82c0-1.062.86-1.923 1.92-1.923s1.92.861 1.92 1.923z"/><path id="u" d="M108.16 48.071c0-15.575-12.608-28.202-28.16-28.202S51.84 32.496 51.84 48.071"/><path id="v" d="M.8 3.846a.8.8 0 11.001-1.601.8.8 0 01-.001 1.6zm0-1.923a.48.48 0 110-.96.48.48 0 010 .96zM.8.64A.32.32 0 11.8 0a.32.32 0 010 .64z"/><path id="y" d="M.8 3.846a.8.8 0 11.001-1.601.8.8 0 01-.001 1.6zm0-1.923a.48.48 0 110-.96.48.48 0 010 .96zM.8.64A.32.32 0 11.8 0a.32.32 0 010 .64z"/><path id="A" d="M1.28 65.056h20.48V52.237H1.28v12.82zm-1.28 0V50.955h23.04v15.383H0v-1.282z"/><path id="B" d="M.8 3.846a.8.8 0 11.001-1.601.8.8 0 01-.001 1.6zm0-1.923a.48.48 0 110-.96.48.48 0 010 .96zM.8.64A.32.32 0 11.8 0a.32.32 0 010 .64z"/><path id="D" d="M0 5.072h1.92v3.901H0V5.072zm.96-.39A.968.968 0 010 3.706c0-.538.43-.975.96-.975s.96.437.96.975c0 .539-.43.976-.96.976zm0-2.341a.58.58 0 01-.576-.585.58.58 0 01.576-.586.58.58 0 01.576.586.58.58 0 01-.576.585zm0-1.56A.387.387 0 01.576.39C.576.174.748 0 .96 0c.212 0 .384.175.384.39 0 .216-.172.39-.384.39z"/><path id="F" d="M17.6 14.421a6.085 6.085 0 00-6.08-6.089 6.085 6.085 0 00-6.08 6.09"/><path id="H" d="M.8 3.846a.8.8 0 11.001-1.601.8.8 0 01-.001 1.6zm0-1.923a.48.48 0 110-.96.48.48 0 010 .96zM.8.64A.32.32 0 11.8 0a.32.32 0 010 .64z"/><path id="J" d="M1.28 65.056h20.48V52.237H1.28v12.82zm-1.28 0V50.955h23.04v15.383H0v-1.282z"/><path id="K" d="M.8 3.846a.8.8 0 11.001-1.601.8.8 0 01-.001 1.6zm0-1.923a.48.48 0 110-.96.48.48 0 010 .96zM.8.64A.32.32 0 11.8 0a.32.32 0 010 .64z"/><path id="M" d="M0 5.072h1.92v3.901H0V5.072zm.96-.39A.968.968 0 010 3.706c0-.538.43-.975.96-.975s.96.437.96.975c0 .539-.43.976-.96.976zm0-2.341a.58.58 0 01-.576-.585.58.58 0 01.576-.586.58.58 0 01.576.586.58.58 0 01-.576.585zm0-1.56A.387.387 0 01.576.39C.576.174.748 0 .96 0c.212 0 .384.175.384.39 0 .216-.172.39-.384.39z"/><path id="O" d="M17.6 14.421a6.085 6.085 0 00-6.08-6.089 6.085 6.085 0 00-6.08 6.09"/><ellipse id="b" cx="3.36" cy="3.365" rx="3.36" ry="3.365"/><ellipse id="c" cx="3.36" cy="3.365" rx="3.36" ry="3.365"/><ellipse id="x" cx="11.52" cy="58.647" rx="6.4" ry="6.409"/><ellipse id="G" cx="11.52" cy="58.647" rx="6.4" ry="6.409"/></defs><g transform="translate(0 -30)" fill="none" fill-rule="evenodd"><use fill="#4B5263" xlink:href="#a"/><use fill="#212B36" fill-opacity=".1" xlink:href="#a"/><path fill="#F5B800" d="M144.32 116.653h2.88v6.41h-.009a1.441 1.441 0 11-2.862 0h-.338a1.441 1.441 0 11-2.862 0h-.338a1.441 1.441 0 11-2.862 0h-.338a1.441 1.441 0 11-2.862 0h-.338a1.441 1.441 0 11-2.862 0h-.009v-6.41h12.8z"/><path fill="#FFF" fill-opacity=".1" d="M131.52 116.653h15.68v2.564h-15.68z"/><path fill="#FFF" d="M132.96 124.024a.8.8 0 11.001-1.601.8.8 0 01-.001 1.6zm3.2 0a.8.8 0 11.001-1.601.8.8 0 01-.001 1.6zm3.2 0a.8.8 0 11.001-1.601.8.8 0 01-.001 1.6zm3.2 0a.8.8 0 11.001-1.601.8.8 0 01-.001 1.6zm3.2 0a.8.8 0 11.001-1.601.8.8 0 01-.001 1.6z"/><path fill="#DD9C8D" d="M115.84 116.653h15.68v38.457h-15.68z"/><path fill="#E36144" d="M115.84 116.653h15.68v.64h-15.68v-.64zm0 1.282h15.68v.64h-15.68v-.64zm0 1.282h15.68v.64h-15.68v-.64zm0 1.282h15.68v.64h-15.68v-.64zm0 1.281h15.68v.641h-15.68v-.64zm0 1.282h15.68v.641h-15.68v-.64zm0 1.282h15.68v.641h-15.68v-.64zm0 1.282h15.68v.641h-15.68v-.64zm0 1.282h15.68v.641h-15.68v-.641zm0 1.282h15.68v.64h-15.68v-.64zm0 1.282h15.68v.64h-15.68v-.64zm0 1.282h15.68v.64h-15.68v-.64zm0 1.282h15.68v.64h-15.68v-.64zm0 1.282h15.68v.64h-15.68v-.64zm0 1.281h15.68v.641h-15.68v-.64zm0 1.282h15.68v.641h-15.68v-.64z"/><path fill="#F5B800" d="M118.4 116.653h10.56v38.457H118.4z"/><g transform="translate(120.32 119.537)"><use fill="#FFF" xlink:href="#b"/><ellipse cx="3.36" cy="3.365" stroke="#E36144" stroke-width="3.2" rx="1.76" ry="1.765"/><ellipse cx="3.36" cy="3.365" stroke="#4B5263" stroke-width="1.6" rx="2.56" ry="2.565"/></g><path fill="#DD9C8D" d="M28.48 116.653h15.68v38.457H28.48z"/><path fill="#E36144" d="M28.48 116.653h15.68v.64H28.48v-.64zm0 1.282h15.68v.64H28.48v-.64zm0 1.282h15.68v.64H28.48v-.64zm0 1.282h15.68v.64H28.48v-.64zm0 1.281h15.68v.641H28.48v-.64zm0 1.282h15.68v.641H28.48v-.64zm0 1.282h15.68v.641H28.48v-.64zm0 1.282h15.68v.641H28.48v-.64zm0 1.282h15.68v.641H28.48v-.641zm0 1.282h15.68v.64H28.48v-.64zm0 1.282h15.68v.64H28.48v-.64zm0 1.282h15.68v.64H28.48v-.64zm0 1.282h15.68v.64H28.48v-.64zm0 1.282h15.68v.64H28.48v-.64zm0 1.281h15.68v.641H28.48v-.64zm0 1.282h15.68v.641H28.48v-.64z"/><path fill="#F5B800" d="M31.04 116.653H41.6v38.457H31.04z"/><g transform="translate(32.96 119.537)"><use fill="#FFF" xlink:href="#c"/><ellipse cx="3.36" cy="3.365" stroke="#E36144" stroke-width="3.2" rx="1.76" ry="1.765"/><ellipse cx="3.36" cy="3.365" stroke="#4B5263" stroke-width="1.6" rx="2.56" ry="2.565"/></g><path fill="#4B5263" d="M12.8 113.448h134.4v3.205H12.8z"/><g transform="translate(44.16 116.653)"><use fill="#E36144" xlink:href="#d"/><use fill="#D8D8D8" fill-opacity=".5" xlink:href="#d"/></g><path fill="#FFF" d="M44.16 116.653h1.28v38.457h-1.28v-38.457zm6.4 0h1.28v38.457h-1.28v-38.457z"/><path fill="#E36144" d="M47.36 116.653h1.28v38.457h-1.28z"/><g transform="translate(59.52 116.653)"><use fill="#E36144" xlink:href="#e"/><use fill="#D8D8D8" fill-opacity=".5" xlink:href="#e"/></g><path fill="#FFF" d="M59.52 116.653h1.28v38.457h-1.28v-38.457zm6.4 0h1.28v38.457h-1.28v-38.457z"/><path fill="#E36144" d="M62.72 116.653H64v38.457h-1.28z"/><path fill="#F5B800" d="M51.84 116.653h7.68v38.457h-7.68z"/><path fill="#4B5263" d="M51.84 116.653h7.68v2.564h-7.68v-2.564zm0 5.127h7.68v2.564h-7.68v-2.564zm0 5.128h7.68v2.564h-7.68v-2.564zm0 5.128h7.68v2.563h-7.68v-2.563zm0 5.127h7.68v2.564h-7.68v-2.564zm0 5.128h7.68v2.564h-7.68v-2.564zm0 5.127h7.68v2.564h-7.68v-2.564zm0 5.128h7.68v2.564h-7.68v-2.564z"/><g transform="translate(92.8 116.653)"><use fill="#E36144" xlink:href="#f"/><use fill="#D8D8D8" fill-opacity=".5" xlink:href="#f"/></g><path fill="#FFF" d="M92.8 116.653h1.28v38.457H92.8v-38.457zm6.4 0h1.28v38.457H99.2v-38.457z"/><path fill="#E36144" d="M96 116.653h1.28v38.457H96z"/><g transform="translate(108.16 116.653)"><use fill="#E36144" xlink:href="#g"/><use fill="#D8D8D8" fill-opacity=".5" xlink:href="#g"/></g><path fill="#FFF" d="M108.16 116.653h1.28v38.457h-1.28v-38.457zm6.4 0h1.28v38.457h-1.28v-38.457z"/><path fill="#E36144" d="M111.36 116.653h1.28v38.457h-1.28z"/><path fill="#F5B800" d="M100.48 116.653h7.68v38.457h-7.68z"/><path fill="#4B5263" d="M100.48 116.653h7.68v2.564h-7.68v-2.564zm0 5.127h7.68v2.564h-7.68v-2.564zm0 5.128h7.68v2.564h-7.68v-2.564zm0 5.128h7.68v2.563h-7.68v-2.563zm0 5.127h7.68v2.564h-7.68v-2.564zm0 5.128h7.68v2.564h-7.68v-2.564zm0 5.127h7.68v2.564h-7.68v-2.564zm0 5.128h7.68v2.564h-7.68v-2.564zM67.2 116.653h25.6v38.457H67.2z"/><path fill="#E36144" d="M88.32 129.472v25.638h-16v-25.638c0-4.425 3.582-8.012 8-8.012s8 3.587 8 8.012z"/><path fill="#FFF" fill-opacity=".1" d="M80.32 155.11h-8v-25.638c0-4.425 3.582-8.012 8-8.012v33.65z"/><path fill="#F5B800" d="M25.6 116.332h2.88v6.41h-.009a1.441 1.441 0 11-2.862 0h-.338a1.441 1.441 0 11-2.862 0h-.338a1.441 1.441 0 11-2.862 0h-.338a1.441 1.441 0 11-2.862 0h-.338a1.441 1.441 0 11-2.862 0H12.8v-6.41h12.8z"/><path fill="#FFF" fill-opacity=".1" d="M12.8 116.332h15.68v2.564H12.8z"/><path fill="#FFF" d="M14.24 123.703a.8.8 0 11.001-1.6.8.8 0 01-.001 1.6zm3.2 0a.8.8 0 11.001-1.6.8.8 0 01-.001 1.6zm3.2 0a.8.8 0 11.001-1.6.8.8 0 01-.001 1.6zm3.2 0a.8.8 0 11.001-1.6.8.8 0 01-.001 1.6zm3.2 0a.8.8 0 11.001-1.6.8.8 0 01-.001 1.6z"/><use fill="#F5B800" xlink:href="#h"/><use fill="#FFF" fill-opacity=".1" xlink:href="#h"/><path fill="#FFF" d="M51.84 88.451h56.32v.641H51.84v-.641zm0 1.282h56.32v.64H51.84v-.64zm0 1.282h56.32v.64H51.84v-.64zm0 1.282h56.32v.64H51.84v-.64zm0 1.282h56.32v.64H51.84v-.64zm0 1.282h56.32v.64H51.84v-.64zm0 1.281h56.32v.641H51.84v-.64zm0 1.282h56.32v.641H51.84v-.64zm0 1.282h56.32v.641H51.84v-.64zm0 1.282h56.32v.641H51.84v-.64zm0 1.282h56.32v.641H51.84v-.641zm0 1.282h56.32v.64H51.84v-.64zm0 1.282h56.32v.64H51.84v-.64zm0 1.282h56.32v.64H51.84v-.64zm0 1.282h56.32v.64H51.84v-.64zm0 1.282h56.32v.64H51.84v-.64zm0 1.281h56.32v.641H51.84v-.64zm0 1.282h56.32v.641H51.84v-.64zm0 1.282h56.32v.641H51.84v-.64zm0 1.282h56.32v.641H51.84v-.64z" opacity=".5"/><path fill="#E36144" d="M51.84 55.763h56.32V87.81H51.84z"/><path fill="#E36144" d="M80 99.347l28.16 14.101H51.84z" opacity=".5"/><ellipse cx="80" cy="93.899" fill="#FFF" rx="5.76" ry="5.769"/><g fill="#E36144" fill-rule="nonzero"><path d="M80 88.772c-2.816 0-5.12 2.307-5.12 5.127s2.304 5.128 5.12 5.128c2.816 0 5.12-2.308 5.12-5.128 0-2.82-2.304-5.127-5.12-5.127zm0 9.913c-2.628 0-4.779-2.154-4.779-4.786 0-2.632 2.15-4.786 4.779-4.786 2.628 0 4.779 2.154 4.779 4.786 0 2.632-2.15 4.786-4.779 4.786z"/><path d="M80 89.797c-2.253 0-4.096 1.846-4.096 4.102 0 2.256 1.843 4.102 4.096 4.102s4.096-1.846 4.096-4.102c0-2.256-1.843-4.102-4.096-4.102zm-.17 5.63v2.228a3.715 3.715 0 01-1.551-.417l1.11-1.926c.137.06.285.099.44.116zm.34 0a1.55 1.55 0 00.432-.11l1.11 1.926a3.716 3.716 0 01-1.541.412v-2.227zm-.17-.331c-.666 0-1.195-.53-1.195-1.197 0-.666.53-1.196 1.195-1.196.666 0 1.195.53 1.195 1.196A1.19 1.19 0 0180 95.096zm-1.527-1.368H76.25a3.73 3.73 0 01.414-1.547l1.923 1.113a1.54 1.54 0 00-.113.434zm0 .342c.017.152.055.298.112.433l-1.923 1.112a3.73 3.73 0 01-.413-1.545h2.224zm1.356-1.7c-.164.018-.32.062-.465.127l.098-.056-1.107-1.92c.45-.22.948-.354 1.474-.378v2.227zm.342 0v-2.227c.523.024 1.02.156 1.467.375l-1.109 1.925.058.033c-.13-.054-.27-.09-.416-.106zm1.356 1.7h2.224a3.73 3.73 0 01-.417 1.552l-1.923-1.111c.06-.138.099-.286.116-.441zm0-.342a1.539 1.539 0 00-.116-.44l1.923-1.112c.244.47.391.995.417 1.552h-2.224zm1.637-1.848l-1.922 1.11a1.53 1.53 0 00-.41-.387l1.106-1.92c.494.3.914.71 1.226 1.197zm-5.108-1.194l1.107 1.92c-.16.104-.298.236-.409.39l-1.92-1.11c.31-.488.729-.9 1.222-1.2zm-1.224 5.225l1.921-1.11c.094.131.209.246.34.342l-1.11 1.924a3.804 3.804 0 01-1.15-1.156zm5.176 1.161L80.9 95.15a1.53 1.53 0 00.343-.341l1.921 1.11a3.804 3.804 0 01-1.155 1.154z"/><path d="M80 93.215a.685.685 0 00-.683.684c0 .376.308.684.683.684a.685.685 0 00.683-.684.685.685 0 00-.683-.684z"/></g><path fill="#4B5263" d="M48.64 52.558h62.72v3.205H48.64z"/><g transform="translate(55.36 55.763)"><path fill="#E36144" d="M0 0h7.68v32.047H0z"/><mask id="j" fill="#fff"><use xlink:href="#i"/></mask><use fill="#4B5263" xlink:href="#i"/><path fill="#FFF" fill-opacity=".1" d="M1.92 10.896h1.92v21.151H1.92z" mask="url(#j)"/><path fill="#FFF" d="M3.84 8.973a.64.64 0 11.001-1.28.64.64 0 01-.001 1.28zm0-2.243a.64.64 0 11.001-1.281.64.64 0 01-.001 1.281zm0-2.243a.64.64 0 11.001-1.281.64.64 0 01-.001 1.28z"/><path fill="#FFF" d="M7.36 9.935H.32v22.112H0V0h.32v9.614h7.04V0h.32v32.047h-.32V9.935z"/></g><g transform="translate(63.68 55.763)"><path fill="#E36144" d="M0 0h7.68v32.047H0z"/><mask id="l" fill="#fff"><use xlink:href="#k"/></mask><use fill="#4B5263" xlink:href="#k"/><path fill="#FFF" fill-opacity=".1" d="M1.92 10.896h1.92v21.151H1.92z" mask="url(#l)"/><path fill="#FFF" d="M3.84 8.973a.64.64 0 11.001-1.28.64.64 0 01-.001 1.28zm0-2.243a.64.64 0 11.001-1.281.64.64 0 01-.001 1.281zm0-2.243a.64.64 0 11.001-1.281.64.64 0 01-.001 1.28z"/><path fill="#FFF" d="M7.36 9.935H.32v22.112H0V0h.32v9.614h7.04V0h.32v32.047h-.32V9.935z"/></g><g transform="translate(72 55.763)"><path fill="#E36144" d="M0 0h7.68v32.047H0z"/><mask id="n" fill="#fff"><use xlink:href="#m"/></mask><use fill="#4B5263" xlink:href="#m"/><path fill="#FFF" fill-opacity=".1" d="M1.92 10.896h1.92v21.151H1.92z" mask="url(#n)"/><path fill="#FFF" d="M3.84 8.973a.64.64 0 11.001-1.28.64.64 0 01-.001 1.28zm0-2.243a.64.64 0 11.001-1.281.64.64 0 01-.001 1.281zm0-2.243a.64.64 0 11.001-1.281.64.64 0 01-.001 1.28z"/><path fill="#FFF" d="M7.36 9.935H.32v22.112H0V0h.32v9.614h7.04V0h.32v32.047h-.32V9.935z"/></g><g transform="translate(80.32 55.763)"><path fill="#E36144" d="M0 0h7.68v32.047H0z"/><mask id="p" fill="#fff"><use xlink:href="#o"/></mask><use fill="#4B5263" xlink:href="#o"/><path fill="#FFF" fill-opacity=".1" d="M1.92 10.896h1.92v21.151H1.92z" mask="url(#p)"/><path fill="#FFF" d="M3.84 8.973a.64.64 0 11.001-1.28.64.64 0 01-.001 1.28zm0-2.243a.64.64 0 11.001-1.281.64.64 0 01-.001 1.281zm0-2.243a.64.64 0 11.001-1.281.64.64 0 01-.001 1.28z"/><path fill="#FFF" d="M7.36 9.935H.32v22.112H0V0h.32v9.614h7.04V0h.32v32.047h-.32V9.935z"/></g><g transform="translate(88.64 55.763)"><path fill="#E36144" d="M0 0h7.68v32.047H0z"/><mask id="r" fill="#fff"><use xlink:href="#q"/></mask><use fill="#4B5263" xlink:href="#q"/><path fill="#FFF" fill-opacity=".1" d="M1.92 10.896h1.92v21.151H1.92z" mask="url(#r)"/><path fill="#FFF" d="M3.84 8.973a.64.64 0 11.001-1.28.64.64 0 01-.001 1.28zm0-2.243a.64.64 0 11.001-1.281.64.64 0 01-.001 1.281zm0-2.243a.64.64 0 11.001-1.281.64.64 0 01-.001 1.28z"/><path fill="#FFF" d="M7.36 9.935H.32v22.112H0V0h.32v9.614h7.04V0h.32v32.047h-.32V9.935z"/></g><g transform="translate(96.96 55.763)"><path fill="#E36144" d="M0 0h7.68v32.047H0z"/><mask id="t" fill="#fff"><use xlink:href="#s"/></mask><use fill="#4B5263" xlink:href="#s"/><path fill="#FFF" fill-opacity=".1" d="M1.92 10.896h1.92v21.151H1.92z" mask="url(#t)"/><path fill="#FFF" d="M3.84 8.973a.64.64 0 11.001-1.28.64.64 0 01-.001 1.28zm0-2.243a.64.64 0 11.001-1.281.64.64 0 01-.001 1.281zm0-2.243a.64.64 0 11.001-1.281.64.64 0 01-.001 1.28z"/><path fill="#FFF" d="M7.36 9.935H.32v22.112H0V0h.32v9.614h7.04V0h.32v32.047h-.32V9.935z"/></g><path fill="#F5B800" d="M51.84 83.964h56.32v3.846H51.84z"/><path fill="#FFF" d="M57.28 83.964h3.84v3.846h-3.84v-3.846zm8.32 0h3.84v3.846H65.6v-3.846zm8.32 0h3.84v3.846h-3.84v-3.846zm8.32 0h3.84v3.846h-3.84v-3.846zm8.32 0h3.84v3.846h-3.84v-3.846zm8.32 0h3.84v3.846h-3.84v-3.846z"/><path fill="#F5B800" d="M51.84 48.071h56.32v4.487H51.84z"/><use fill="#E36144" xlink:href="#u"/><use fill="#FFF" fill-opacity=".2" xlink:href="#u"/><path fill="#FFF" fill-opacity=".5" d="M52.48 48.392h1.28v3.845h-1.28v-3.845zm2.24 0H56v3.845h-1.28v-3.845zm2.24 0h1.28v3.845h-1.28v-3.845zm2.24 0h1.28v3.845H59.2v-3.845zm2.24 0h1.28v3.845h-1.28v-3.845zm2.24 0h1.28v3.845h-1.28v-3.845zm2.24 0h1.28v3.845h-1.28v-3.845zm2.24 0h1.28v3.845h-1.28v-3.845zm2.24 0h1.28v3.845H70.4v-3.845zm2.24 0h1.28v3.845h-1.28v-3.845zm2.24 0h1.28v3.845h-1.28v-3.845zm2.24 0h1.28v3.845h-1.28v-3.845zm2.24 0h1.28v3.845h-1.28v-3.845zm2.24 0h1.28v3.845H81.6v-3.845zm2.24 0h1.28v3.845h-1.28v-3.845zm2.24 0h1.28v3.845h-1.28v-3.845zm2.24 0h1.28v3.845h-1.28v-3.845zm2.24 0h1.28v3.845h-1.28v-3.845zm2.24 0h1.28v3.845H92.8v-3.845zm2.24 0h1.28v3.845h-1.28v-3.845zm2.24 0h1.28v3.845h-1.28v-3.845zm2.24 0h1.28v3.845h-1.28v-3.845zm2.24 0h1.28v3.845h-1.28v-3.845zm2.24 0h1.28v3.845H104v-3.845zm2.24 0h1.28v3.845h-1.28v-3.845z"/><path fill="#4B5263" fill-opacity=".2" d="M51.84 57.045l1.28 2.563 1.28-2.563 1.28 2.563 1.28-2.563 1.28 2.563 1.28-2.563 1.28 2.563 1.28-2.563 1.28 2.563 1.28-2.563 1.28 2.563 1.28-2.563 1.28 2.563 1.28-2.563 1.28 2.563 1.28-2.563 1.28 2.563 1.28-2.563h2.56l-1.28 2.563-1.28-2.563h-2.56zm25.6 0l1.28 2.563L80 57.045h2.56l-1.28 2.563L80 57.045h-2.56zm5.12 0l1.28 2.563 1.28-2.563 1.28 2.563 1.28-2.563 1.28 2.563 1.28-2.563 1.28 2.563 1.28-2.563 1.28 2.563 1.28-2.563h2.56l-1.28 2.563-1.28-2.563H92.8zm15.36 0l1.28 2.563 1.28-2.563 1.28 2.563 1.28-2.563h2.56l-1.28 2.563-1.28-2.563h-2.56zm-46.08 0v-1.282h56.32v1.282l-1.28 2.563-1.28-2.563z"/><path fill="#F5B800" d="M53.12 58.326l-1.28-2.563h2.56l-1.28 2.563zm2.56 0l-1.28-2.563h2.56l-1.28 2.563zm2.56 0l-1.28-2.563h2.56l-1.28 2.563zm2.56 0l-1.28-2.563h2.56l-1.28 2.563zm2.56 0l-1.28-2.563h2.56l-1.28 2.563zm2.56 0l-1.28-2.563h2.56l-1.28 2.563zm2.56 0l-1.28-2.563h2.56l-1.28 2.563zm2.56 0l-1.28-2.563h2.56l-1.28 2.563zm2.56 0l-1.28-2.563h2.56l-1.28 2.563zm2.56 0l-1.28-2.563h2.56l-1.28 2.563zm2.56 0l-1.28-2.563H80l-1.28 2.563zm2.56 0L80 55.763h2.56l-1.28 2.563zm2.56 0l-1.28-2.563h2.56l-1.28 2.563zm2.56 0l-1.28-2.563h2.56l-1.28 2.563zm2.56 0l-1.28-2.563h2.56l-1.28 2.563zm2.56 0l-1.28-2.563h2.56l-1.28 2.563zm2.56 0l-1.28-2.563h2.56l-1.28 2.563zm2.56 0l-1.28-2.563h2.56l-1.28 2.563zm2.56 0l-1.28-2.563h2.56l-1.28 2.563zm2.56 0l-1.28-2.563h2.56l-1.28 2.563zm2.56 0l-1.28-2.563h2.56l-1.28 2.563zm2.56 0l-1.28-2.563h2.56l-1.28 2.563z"/><g transform="translate(110.08 64.736)"><mask id="w" fill="#fff"><use xlink:href="#v"/></mask><use fill="#F5B800" xlink:href="#v"/><path fill="#FFF" fill-opacity=".1" d="M0 2.243h1v5.128H0z" mask="url(#w)"/></g><path fill="#E36144" d="M108.16 94.22h23.04v19.228h-23.04z"/><g transform="translate(108.16 47.11)"><use fill="#FFF" xlink:href="#x"/><ellipse cx="11.52" cy="58.647" stroke="#E36144" stroke-width="7.68" rx="2.56" ry="2.569"/><ellipse cx="11.52" cy="58.647" stroke="#4B5263" stroke-width="3.84" rx="4.48" ry="4.489"/><use stroke="#F5B800" stroke-width=".5" xlink:href="#x"/></g><path fill="#4B5263" fill-opacity=".2" d="M108.16 95.501l1.28 2.564 1.28-2.564 1.28 2.564 1.28-2.564 1.28 2.564 1.28-2.564 1.28 2.564 1.28-2.564 1.28 2.564 1.28-2.564 1.28 2.564 1.28-2.564 1.28 2.564 1.28-2.564h2.56l-1.28 2.564-1.28-2.564h-2.56zm0 0V94.22h23.04v1.28l-1.28 2.564-1.28-2.564z"/><path fill="#F5B800" d="M109.44 96.783l-1.28-2.563h2.56l-1.28 2.563zm2.56 0l-1.28-2.563h2.56L112 96.783zm2.56 0l-1.28-2.563h2.56l-1.28 2.563zm2.56 0l-1.28-2.563h2.56l-1.28 2.563zm2.56 0l-1.28-2.563h2.56l-1.28 2.563zm2.56 0l-1.28-2.563h2.56l-1.28 2.563zm2.56 0l-1.28-2.563h2.56l-1.28 2.563zm2.56 0l-1.28-2.563h2.56l-1.28 2.563zm2.56 0l-1.28-2.563h2.56l-1.28 2.563zm1.28 3.846h16v12.819h-16z"/><g transform="translate(145.6 96.142)"><mask id="z" fill="#fff"><use xlink:href="#y"/></mask><use fill="#F5B800" xlink:href="#y"/><path fill="#FFF" fill-opacity=".1" d="M0 2.243h1v5.128H0z" mask="url(#z)"/></g><path fill="#E36144" d="M131.2 101.27h16v.641h-16v-.641zm0 1.282h16v.64h-16v-.64zm0 1.282h16v.64h-16v-.64zm0 1.282h16v.64h-16v-.64zm0 1.282h16v.64h-16v-.64zm0 1.282h16v.64h-16v-.64zm0 1.281h16v.641h-16v-.64zm0 1.282h16v.641h-16v-.64zm0 1.282h16v.641h-16v-.64zm0 1.282h16v.641h-16v-.64z"/><g transform="translate(108.16 47.11)"><use fill="#FFF" xlink:href="#A"/><path stroke="#F5B800" stroke-width=".5" d="M22.01 65.306H1.03V51.987h20.98v13.32zm-21.76.782h22.54V51.205H.25v14.883z"/></g><path fill="#4B5263" d="M110.08 92.297h19.2v1.923h-19.2zm0-4.807h19.2v1h-19.2zm0-15.703h19.2v1h-19.2z"/><path fill="#E36144" d="M112.64 72.748h1.28V87.49h-1.28V72.748zm2.56 0h1.28V87.49h-1.28V72.748zm2.56 0h1.28V87.49h-1.28V72.748zm-7.68 0h1.28V87.49h-1.28V72.748zm10.24 0h1.28V87.49h-1.28V72.748zm2.56 0h1.28V87.49h-1.28V72.748zm2.56 0h1.28V87.49h-1.28V72.748zm2.56 0h1.28V87.49H128V72.748zM110.08 88.45h19.2v3.847h-19.2z"/><path fill="#FFF" d="M112 88.451l1.92 1.923-1.92 1.923-1.92-1.923L112 88.45zm3.84 0l1.92 1.923-1.92 1.923-1.92-1.923 1.92-1.923zm3.84 0l1.92 1.923-1.92 1.923-1.92-1.923 1.92-1.923zm3.84 0l1.92 1.923-1.92 1.923-1.92-1.923 1.92-1.923zm3.84 0l1.92 1.923-1.92 1.923-1.92-1.923 1.92-1.923z"/><path fill="#F5B800" d="M110.08 69.223h19.2v2.564h-19.2z"/><g transform="translate(127.68 64.736)"><mask id="C" fill="#fff"><use xlink:href="#B"/></mask><use fill="#F5B800" xlink:href="#B"/><path fill="#FFF" fill-opacity=".1" d="M0 2.243h1v5.128H0z" mask="url(#C)"/></g><path fill="#4B5263" d="M113.6 61.53h12.16v7.692H113.6z"/><g transform="translate(118.72 47.11)"><mask id="E" fill="#fff"><use xlink:href="#D"/></mask><use fill="#F5B800" xlink:href="#D"/><path fill="#FFF" fill-opacity=".1" d="M0 2.731h1v6.242H0z" mask="url(#E)"/></g><g transform="translate(108.16 47.11)"><use fill="#E36144" xlink:href="#F"/><use fill="#FFF" fill-opacity=".2" xlink:href="#F"/></g><path fill="#FFF" d="M113.6 62.172h12.16v.641H113.6v-.64zm0 1.282h12.16v.641H113.6v-.641zm0 1.282h12.16v.64H113.6v-.64zm0 1.282h12.16v.64H113.6v-.64zm0 1.282h12.16v.64H113.6v-.64zm0 1.282h12.16v.64H113.6v-.64z" opacity=".5"/><path fill="#E36144" d="M51.84 94.22H28.8v19.228h23.04z"/><g transform="matrix(-1 0 0 1 51.84 47.11)"><use fill="#FFF" xlink:href="#G"/><ellipse cx="11.52" cy="58.647" stroke="#E36144" stroke-width="7.68" rx="2.56" ry="2.569"/><ellipse cx="11.52" cy="58.647" stroke="#4B5263" stroke-width="3.84" rx="4.48" ry="4.489"/><use stroke="#F5B800" stroke-width=".5" xlink:href="#G"/></g><path fill="#4B5263" fill-opacity=".2" d="M51.84 95.501l-1.28 2.564-1.28-2.564L48 98.065l-1.28-2.564-1.28 2.564-1.28-2.564-1.28 2.564-1.28-2.564-1.28 2.564-1.28-2.564-1.28 2.564-1.28-2.564-1.28 2.564-1.28-2.564h-2.56l1.28 2.564 1.28-2.564h2.56zm0 0V94.22H28.8v1.28l1.28 2.564 1.28-2.564z"/><path fill="#F5B800" d="M50.56 96.783l1.28-2.563h-2.56l1.28 2.563zm-2.56 0l1.28-2.563h-2.56L48 96.783zm-2.56 0l1.28-2.563h-2.56l1.28 2.563zm-2.56 0l1.28-2.563H41.6l1.28 2.563zm-2.56 0l1.28-2.563h-2.56l1.28 2.563zm-2.56 0l1.28-2.563h-2.56l1.28 2.563zm-2.56 0l1.28-2.563h-2.56l1.28 2.563zm-2.56 0l1.28-2.563h-2.56l1.28 2.563zm-2.56 0l1.28-2.563H28.8l1.28 2.563zm-1.28 3.846h-16v12.819h16z"/><g transform="matrix(-1 0 0 1 14.4 96.142)"><mask id="I" fill="#fff"><use xlink:href="#H"/></mask><use fill="#F5B800" xlink:href="#H"/><path fill="#FFF" fill-opacity=".1" d="M0 2.243h1v5.128H0z" mask="url(#I)"/></g><path fill="#E36144" d="M28.8 101.27h-16v.641h16v-.641zm0 1.282h-16v.64h16v-.64zm0 1.282h-16v.64h16v-.64zm0 1.282h-16v.64h16v-.64zm0 1.282h-16v.64h16v-.64zm0 1.282h-16v.64h16v-.64zm0 1.281h-16v.641h16v-.64zm0 1.282h-16v.641h16v-.64zm0 1.282h-16v.641h16v-.64zm0 1.282h-16v.641h16v-.64z"/><g transform="matrix(-1 0 0 1 51.84 47.11)"><use fill="#FFF" xlink:href="#J"/><path stroke="#F5B800" stroke-width=".5" d="M22.01 65.306H1.03V51.987h20.98v13.32zm-21.76.782h22.54V51.205H.25v14.883z"/></g><path fill="#4B5263" d="M49.92 92.297h-19.2v1.923h19.2zm0-4.807h-19.2v1h19.2zm0-15.703h-19.2v1h19.2z"/><path fill="#E36144" d="M47.36 72.748h-1.28V87.49h1.28V72.748zm-2.56 0h-1.28V87.49h1.28V72.748zm-2.56 0h-1.28V87.49h1.28V72.748zm7.68 0h-1.28V87.49h1.28V72.748zm-10.24 0H38.4V87.49h1.28V72.748zm-2.56 0h-1.28V87.49h1.28V72.748zm-2.56 0h-1.28V87.49h1.28V72.748zm-2.56 0h-1.28V87.49H32V72.748zM49.92 88.45h-19.2v3.847h19.2z"/><path fill="#FFF" d="M48 88.451l-1.92 1.923L48 92.297l1.92-1.923L48 88.45zm-3.84 0l-1.92 1.923 1.92 1.923 1.92-1.923-1.92-1.923zm-3.84 0l-1.92 1.923 1.92 1.923 1.92-1.923-1.92-1.923zm-3.84 0l-1.92 1.923 1.92 1.923 1.92-1.923-1.92-1.923zm-3.84 0l-1.92 1.923 1.92 1.923 1.92-1.923-1.92-1.923z"/><path fill="#F5B800" d="M49.92 69.223h-19.2v2.564h19.2z"/><g transform="matrix(-1 0 0 1 32.32 64.736)"><mask id="L" fill="#fff"><use xlink:href="#K"/></mask><use fill="#F5B800" xlink:href="#K"/><path fill="#FFF" fill-opacity=".1" d="M0 2.243h1v5.128H0z" mask="url(#L)"/></g><path fill="#4B5263" d="M46.4 61.53H34.24v7.692H46.4z"/><g transform="matrix(-1 0 0 1 41.28 47.11)"><mask id="N" fill="#fff"><use xlink:href="#M"/></mask><use fill="#F5B800" xlink:href="#M"/><path fill="#FFF" fill-opacity=".1" d="M0 2.731h1v6.242H0z" mask="url(#N)"/></g><g transform="matrix(-1 0 0 1 51.84 47.11)"><use fill="#E36144" xlink:href="#O"/><use fill="#FFF" fill-opacity=".2" xlink:href="#O"/></g><path fill="#FFF" d="M46.4 62.172H34.24v.641H46.4v-.64zm0 1.282H34.24v.641H46.4v-.641zm0 1.282H34.24v.64H46.4v-.64zm0 1.282H34.24v.64H46.4v-.64zm0 1.282H34.24v.64H46.4v-.64zm0 1.282H34.24v.64H46.4v-.64z" opacity=".5"/></g></svg>