<svg xmlns="http://www.w3.org/2000/svg" viewBox="0 0 160 96"><defs><linearGradient id="a" x1="0%" y1="0%" y2="100%"><stop offset="0%" stop-color="#645E72"/><stop offset="100%" stop-color="#8896B9"/></linearGradient><linearGradient id="b" x1="0%" y1="100%" y2="0%"><stop offset="0%" stop-color="#4F4F4F"/><stop offset="100%" stop-color="#95A2C2"/></linearGradient></defs><g fill="none" fill-rule="evenodd"><path fill="url(#a)" d="M0 80l80-48V0L0 48zm0-64l80-48v-32L0-16z"/><path fill="url(#a)" d="M0 96l80-48V16L0 64z" transform="matrix(1 0 0 -1 0 112)"/><path fill="url(#a)" d="M0 160l80-48V80L0 128z" transform="matrix(1 0 0 -1 0 240)"/><path fill="url(#b)" d="M80 80l80-48V0L80 48zm0-64l80-48v-32L80-16z" transform="matrix(-1 0 0 1 240 0)"/><path fill="url(#b)" d="M80 96l80-48V16L80 64z" transform="rotate(180 120 56)"/><path fill="url(#b)" d="M80 160l80-48V80l-80 48z" transform="rotate(180 120 120)"/></g></svg>